<svg xmlns="http://www.w3.org/2000/svg" width="30.674" height="19.721" viewBox="0 0 30.674 19.721">
  <path id="Path_59" data-name="Path 59" d="M1749.894,393.5h-.841v-2.555a2.375,2.375,0,0,0-2.36-2.361,1.965,1.965,0,0,0-.969.227v-.451a2.36,2.36,0,1,0-4.721,0v5.14h-8.21v-5.14a2.359,2.359,0,1,0-4.717,0v.451a2.327,2.327,0,0,0-3.329,2.134V393.5h-.841a2.359,2.359,0,1,0,0,4.719h.841v2.555a2.373,2.373,0,0,0,2.36,2.358,1.964,1.964,0,0,0,.969-.225v.451a2.359,2.359,0,1,0,4.717,0v-5.14h8.178v5.14a2.36,2.36,0,1,0,4.72,0v-.451a2.331,2.331,0,0,0,3.33-2.134v-2.555h.841a2.371,2.371,0,0,0,2.358-2.361A2.343,2.343,0,0,0,1749.894,393.5Zm-25.988,3.33a.973.973,0,0,1-.969-.972,1,1,0,0,1,.969-.969h.841v1.941Zm3.2,4.914a.973.973,0,0,1-.97-.97v-9.829a.97.97,0,0,1,1.939,0v9.8A.981.981,0,0,1,1727.107,401.747Zm4.33,1.616a.969.969,0,1,1-1.939,0v-15a.969.969,0,1,1,1.939,0Zm1.356-6.529v-1.941h8.178v1.941Zm11.539,6.529a.969.969,0,1,1-1.938,0v-15a.969.969,0,1,1,1.938,0v15Zm3.329-2.585a.969.969,0,1,1-1.938,0v-9.829a.969.969,0,1,1,1.938,0Zm2.231-3.944h-.841v-1.941h.841a.971.971,0,0,1,0,1.941Z" transform="translate(-1721.546 -386.002)" fill="#2695f9"/>
</svg>
