<svg id="Group_72" data-name="Group 72" xmlns="http://www.w3.org/2000/svg" width="29.258" height="29.112" viewBox="0 0 29.258 29.112">
  <g id="Group_43" data-name="Group 43" transform="translate(15.794)">
    <g id="Group_42" data-name="Group 42">
      <g id="Group_41" data-name="Group 41">
        <g id="Group_40" data-name="Group 40">
          <path id="Path_36" data-name="Path 36" d="M1729.792,231.5c-.17,0-.28-.008-.3-.008a.685.685,0,0,1-.646-.665c0-.17-.076-4.217,2.095-5.794,1.523-1.107,5.143-1.776,5.55-1.851a.684.684,0,0,1,.789.816c-.033.153-.833,3.79-2.095,5.382h0C1733.638,231.336,1730.741,231.5,1729.792,231.5Zm5.893-6.756a13.494,13.494,0,0,0-3.944,1.4c-1.088.789-1.436,2.764-1.515,3.981,1-.058,2.9-.334,3.89-1.585h0A12.6,12.6,0,0,0,1735.685,224.748Zm-1.038,4.217Z" transform="translate(-1728.843 -223.175)" fill="#2695f9"/>
        </g>
      </g>
    </g>
  </g>
  <g id="Group_47" data-name="Group 47" transform="translate(22.291 10.737)">
    <g id="Group_46" data-name="Group 46">
      <g id="Group_45" data-name="Group 45">
        <g id="Group_44" data-name="Group 44">
          <path id="Path_37" data-name="Path 37" d="M1735.364,233.145a.341.341,0,0,1-.331-.259,4.505,4.505,0,0,0-2.607-3.494.342.342,0,1,1,.24-.64c1.508.562,2.528,1.9,3.028,3.97a.341.341,0,0,1-.251.414A.271.271,0,0,1,1735.364,233.145Z" transform="translate(-1732.204 -228.731)" fill="#2695f9"/>
        </g>
      </g>
    </g>
  </g>
  <g id="Group_51" data-name="Group 51" transform="translate(3.533 7.067)">
    <g id="Group_50" data-name="Group 50">
      <g id="Group_49" data-name="Group 49">
        <g id="Group_48" data-name="Group 48">
          <path id="Path_38" data-name="Path 38" d="M1730.975,248.878a4.617,4.617,0,0,1-3.347-1.4,15.221,15.221,0,0,1-2.381-2.719c-.035-.048-1.3-1.726-1.679-2.375a.683.683,0,0,1,1.177-.692c.284.481,1.26,1.8,1.612,2.273a13.932,13.932,0,0,0,2.217,2.524.508.508,0,0,1,.062.066,3.439,3.439,0,0,0,4.06.559,6.028,6.028,0,0,1,5.315-.014,3.458,3.458,0,0,0,4.087-.549.672.672,0,0,1,.062-.066c5.945-5.332,4.561-13.022,4.543-13.1a6.646,6.646,0,0,0-3.044-4.594,6.21,6.21,0,0,0-4.592-.28.643.643,0,0,1-.108.031,14.735,14.735,0,0,1-7.2,0,.774.774,0,0,1-.11-.031,6.291,6.291,0,0,0-4.6.286c-1.463.789-2.488,2.344-3.037,4.623h0a13.474,13.474,0,0,0-.143,2.5.684.684,0,0,1-.667.7h-.016a.682.682,0,0,1-.682-.665,14.128,14.128,0,0,1,.174-2.818c.653-2.713,1.91-4.565,3.738-5.545a7.555,7.555,0,0,1,5.647-.379,20.172,20.172,0,0,0,3.285.417,19.663,19.663,0,0,0,3.307-.417,7.561,7.561,0,0,1,5.646.379c1.828.976,3.084,2.831,3.732,5.51.071.379,1.542,8.536-4.936,14.377a4.839,4.839,0,0,1-5.618.881,7.53,7.53,0,0,0-2.12-.506,7.615,7.615,0,0,0-2.145.52A5.415,5.415,0,0,1,1730.975,248.878Z" transform="translate(-1722.498 -226.832)" fill="#2695f9"/>
        </g>
      </g>
    </g>
  </g>
  <g id="Group_55" data-name="Group 55" transform="translate(12.346 2.807)">
    <g id="Group_54" data-name="Group 54">
      <g id="Group_53" data-name="Group 53">
        <g id="Group_52" data-name="Group 52">
          <path id="Path_39" data-name="Path 39" d="M1731.19,230.146a.681.681,0,0,1-.63-.419c-1.239-2.978-3.005-3.753-3.081-3.784a.683.683,0,0,1,.514-1.266c.1.039,2.354.98,3.829,4.524a.683.683,0,0,1-.369.891A.66.66,0,0,1,1731.19,230.146Z" transform="translate(-1727.058 -224.628)" fill="#2695f9"/>
        </g>
      </g>
    </g>
  </g>
  <g id="Group_59" data-name="Group 59" transform="translate(0 11.558)">
    <g id="Group_58" data-name="Group 58">
      <g id="Group_57" data-name="Group 57">
        <g id="Group_56" data-name="Group 56">
          <path id="Path_40" data-name="Path 40" d="M1736.8,240.555h-13.306a2.741,2.741,0,0,1-2.822-2.65v-6.1a2.742,2.742,0,0,1,2.822-2.648h1.838a.683.683,0,0,1,0,1.366h-1.838a1.293,1.293,0,1,0,0,2.565H1736.8a.685.685,0,0,1,.682.682v6.1A.682.682,0,0,1,1736.8,240.555Zm-14.763-6.482v3.834a1.382,1.382,0,0,0,1.458,1.287h12.622v-4.743h-12.622A2.917,2.917,0,0,1,1722.034,234.073Z" transform="translate(-1720.67 -229.156)" fill="#2695f9"/>
        </g>
      </g>
    </g>
  </g>
  <g id="Group_63" data-name="Group 63" transform="translate(4.484 19.492)">
    <g id="Group_62" data-name="Group 62">
      <g id="Group_61" data-name="Group 61">
        <g id="Group_60" data-name="Group 60">
          <path id="Path_41" data-name="Path 41" d="M1723.33,236.257a.342.342,0,0,1-.34-.342V233.6a.341.341,0,0,1,.682,0v2.313A.342.342,0,0,1,1723.33,236.257Z" transform="translate(-1722.99 -233.261)" fill="#2695f9"/>
        </g>
      </g>
    </g>
  </g>
  <g id="Group_67" data-name="Group 67" transform="translate(8.345 19.492)">
    <g id="Group_66" data-name="Group 66">
      <g id="Group_65" data-name="Group 65">
        <g id="Group_64" data-name="Group 64">
          <path id="Path_42" data-name="Path 42" d="M1725.328,236.257a.342.342,0,0,1-.34-.342V233.6a.341.341,0,0,1,.682,0v2.313A.341.341,0,0,1,1725.328,236.257Z" transform="translate(-1724.988 -233.261)" fill="#2695f9"/>
        </g>
      </g>
    </g>
  </g>
  <g id="Group_71" data-name="Group 71" transform="translate(12.21 19.492)">
    <g id="Group_70" data-name="Group 70">
      <g id="Group_69" data-name="Group 69">
        <g id="Group_68" data-name="Group 68">
          <path id="Path_43" data-name="Path 43" d="M1727.328,236.257a.342.342,0,0,1-.34-.342V233.6a.341.341,0,0,1,.682,0v2.313A.343.343,0,0,1,1727.328,236.257Z" transform="translate(-1726.988 -233.261)" fill="#2695f9"/>
        </g>
      </g>
    </g>
  </g>
</svg>
