<svg id="Group_76" data-name="Group 76" xmlns="http://www.w3.org/2000/svg" width="31.314" height="28.207" viewBox="0 0 31.314 28.207">
  <path id="Path_58" data-name="Path 58" d="M1722.363,364.814a.864.864,0,0,1-1.593.655,10.333,10.333,0,0,1,0-7.116c.75-1.871.468-2.621,0-4.586a5.585,5.585,0,0,1,.75-4.213,4.625,4.625,0,0,1,3.276-1.873,7.8,7.8,0,0,1,2.153-1.778c2.153-1.31,2.623-.375,3.371-1.685.375-.75.188-1.965,1.218-1.873,1.685.188.093,3.745-1.5,4.213a6.815,6.815,0,0,0-2.34.75,7.815,7.815,0,0,0-1.966,1.965,3.657,3.657,0,0,0-2.9,1.216,4.268,4.268,0,0,0-.468,3,9.748,9.748,0,0,1,.468,2.713c0,2.528-1.03,3-1.03,5.618A6.579,6.579,0,0,0,1722.363,364.814Zm22.279-10.859a.79.79,0,1,1,1.5.468l-.937,3.745c-.375,1.871,1.685,7.582,1.778,7.676.282.935-1.216,1.591-1.591.56a37.108,37.108,0,0,1-1.123-3.743,37.543,37.543,0,0,0-.75,7.114.846.846,0,0,1-1.685,0C1741.833,363.222,1744.549,353.955,1744.642,353.955Zm6.18,11.515a.864.864,0,0,1-1.593-.655c1.593-4.026-.468-5.711-.468-8.614a9.739,9.739,0,0,1,.468-2.713,4.268,4.268,0,0,0-.468-3,3.66,3.66,0,0,0-2.9-1.216c-2.9-3.838-4.4-1.5-5.991-4.213-.375-.655-1.123-2.528.187-2.715,1.031-.093.843,1.123,1.218,1.873.748,1.31,1.215.375,3.369,1.685a7.816,7.816,0,0,1,2.155,1.778,4.624,4.624,0,0,1,3.275,1.873,5.584,5.584,0,0,1,.75,4.213,18.692,18.692,0,0,0-.47,2.433,6.007,6.007,0,0,0,.47,2.248A10.09,10.09,0,0,1,1750.822,365.469Zm-25.372-11.047a.79.79,0,1,1,1.5-.468c.095,0,2.808,9.267,2.808,15.821a.845.845,0,0,1-1.683,0,37.543,37.543,0,0,0-.75-7.114,37.108,37.108,0,0,1-1.123,3.743c-.375,1.03-1.873.375-1.593-.56.095-.095,2.153-5.806,1.78-7.676Z" transform="translate(-1720.138 -342.34)" fill="#2695f9"/>
</svg>
