<svg xmlns="http://www.w3.org/2000/svg" width="28.021" height="28.018" viewBox="0 0 28.021 28.018">
  <g id="Group_156" data-name="Group 156" transform="translate(-2303.789 -403.542)">
    <path id="Path_125" data-name="Path 125" d="M2331.123,425.979l-.079-.054a2.389,2.389,0,0,0-2.654-.389l-2.882-2.879c.894-1.59.188-2.741-.639-4.092a8.6,8.6,0,0,1-1.118-2.23c-.209-.676-.416-1.423-.646-2.242-.852-3.061-1.73-6.229-3.309-7.808a9.376,9.376,0,0,0-13.263,13.257c2.236,2.239,4.771,2.759,7.216,3.261.87.188,1.877.409,2.843.7a8.949,8.949,0,0,1,2.256,1.136c1.319.81,2.469,1.519,4.06.619l2.878,2.879a2.356,2.356,0,0,0-.249,1.043,2.391,2.391,0,0,0,.694,1.692l.072.054a2.287,2.287,0,0,0,1.611.634,2.435,2.435,0,0,0,1.689-.688,2.535,2.535,0,0,0,.484-.711c.036-.084.063-.158.09-.236a1.875,1.875,0,0,0,.245-.1,2.608,2.608,0,0,0,.706-.478,2.442,2.442,0,0,0,.681-1.683A2.412,2.412,0,0,0,2331.123,425.979Zm-7.833-2.941c-1.6,1.578-2.37,1.094-3.658.284l-.077-.048a10.684,10.684,0,0,0-2.526-1.235c-.99-.3-1.947-.5-2.867-.691l-.188-.039c-2.311-.5-4.493-.977-6.352-2.852a7.84,7.84,0,1,1,11.087-11.087c1.33,1.33,2.179,4.409,2.929,7.129l.651,2.281a10.907,10.907,0,0,0,1.28,2.6C2324.378,420.667,2324.869,421.441,2323.29,423.038Zm4.026,5.542a.767.767,0,0,0,0-1.067l-3.175-3.193c.07-.066.141-.138.219-.212s.144-.147.21-.215l3.189,3.174s.781.287,1.073,0a.862.862,0,0,1,1.2,0,.828.828,0,0,1,.248.6.848.848,0,0,1-.248.6l-.018.021a.662.662,0,0,1-.26.161.775.775,0,0,1-.281.069.769.769,0,0,0-.7.693.959.959,0,0,1-.084.326.749.749,0,0,1-.17.245.85.85,0,0,1-1.211-.009.8.8,0,0,1-.242-.595A.854.854,0,0,1,2327.316,428.58Z" fill="#2695f9"/>
    <path id="Path_126" data-name="Path 126" d="M2309.988,404.6a6.181,6.181,0,0,0-4.361,1.808.745.745,0,0,0-.242.544.708.708,0,0,0,.222.529.734.734,0,0,0,.544.239h0a.725.725,0,0,0,.532-.23,4.684,4.684,0,0,1,6.6-.009.71.71,0,0,0,.523.239h.021a.78.78,0,0,0,.553-.23.77.77,0,0,0,0-1.067A6.19,6.19,0,0,0,2309.988,404.6Z" transform="translate(3.175 2.112)" fill="#2695f9"/>
  </g>
</svg>
