<svg id="Group_77" data-name="Group 77" xmlns="http://www.w3.org/2000/svg" width="29.296" height="29.932" viewBox="0 0 29.296 29.932">
  <path id="Path_54" data-name="Path 54" d="M1750.522,471.136a3.483,3.483,0,0,0-3.472-3.031h-8.269v-3.252h9.262a.929.929,0,0,0,.936-.938.946.946,0,0,0-.936-.936H1727.62a.942.942,0,0,0-.91.936.925.925,0,0,0,.91.938h9.288v3.252h-8.323a3.438,3.438,0,0,0-3.446,3.031l-1.93,15.324a3.511,3.511,0,0,0,3.031,3.887,2.629,2.629,0,0,0,.443.028h1.294V492a.923.923,0,0,0,1.846,0v-1.626h16.014V492a.926.926,0,0,0,.938.91.943.943,0,0,0,.937-.91v-1.626h1.3a3.454,3.454,0,0,0,2.452-1.021,3.365,3.365,0,0,0,1.019-2.453v-.137Zm-.329,16.812-.607.69v-.3a1.5,1.5,0,0,1-.607.137h-22.3a1.605,1.605,0,0,1-1.131-.467,1.629,1.629,0,0,1-.469-1.159v-.192l1.9-15.324a1.639,1.639,0,0,1,1.628-1.408h18.466a1.589,1.589,0,0,1,1.6,1.434l1.929,15.3A1.608,1.608,0,0,1,1750.193,487.948Z" transform="translate(-1723.184 -462.979)" fill="#2695f9"/>
  <path id="Path_55" data-name="Path 55" d="M1732.365,467.574a5.19,5.19,0,1,0,5.19,5.19A5.189,5.189,0,0,0,1732.365,467.574Zm0,8.769a3.59,3.59,0,1,1,3.578-3.579A3.6,3.6,0,0,1,1732.365,476.343Z" transform="translate(-1717.718 -456.684)" fill="#2695f9"/>
</svg>
