<svg id="Group_74" data-name="Group 74" xmlns="http://www.w3.org/2000/svg" width="30.002" height="30.003" viewBox="0 0 30.002 30.003">
  <path id="Path_49" data-name="Path 49" d="M1726.962,306.1a1.99,1.99,0,0,1-.5,1.25.6.6,0,0,0,0,.875.666.666,0,0,0,.437.188.562.562,0,0,0,.437-.187,2.977,2.977,0,0,0,.876-2.126,2.735,2.735,0,0,0-.876-2.062,1.713,1.713,0,0,1-.5-1.187,1.989,1.989,0,0,1,.5-1.25.618.618,0,0,0-.874-.875,2.976,2.976,0,0,0-.875,2.126,2.735,2.735,0,0,0,.875,2.062A1.713,1.713,0,0,1,1726.962,306.1Z" transform="translate(-1715.713 -300.48)" fill="#2695f9"/>
  <path id="Path_50" data-name="Path 50" d="M1728.442,307.324a.606.606,0,0,0,0,.875.685.685,0,0,0,.439.187.567.567,0,0,0,.437-.187,2.9,2.9,0,0,0,0-4.188,1.757,1.757,0,0,1,0-2.437.619.619,0,0,0-.875-.875,2.908,2.908,0,0,0,0,4.188A1.816,1.816,0,0,1,1728.442,307.324Z" transform="translate(-1713.88 -300.51)" fill="#2695f9"/>
  <path id="Path_51" data-name="Path 51" d="M1730.908,306.074a1.982,1.982,0,0,1-.5,1.25.606.606,0,0,0,0,.875.684.684,0,0,0,.439.187.57.57,0,0,0,.437-.187,2.977,2.977,0,0,0,.875-2.126,2.735,2.735,0,0,0-.875-2.062,1.706,1.706,0,0,1-.5-1.189,1.979,1.979,0,0,1,.5-1.248.619.619,0,0,0-.875-.875,2.938,2.938,0,0,0-.874,2.062,2.731,2.731,0,0,0,.874,2.062A1.986,1.986,0,0,1,1730.908,306.074Z" transform="translate(-1712.032 -300.51)" fill="#2695f9"/>
  <path id="Path_52" data-name="Path 52" d="M1750.48,308.832c0-2.75-9.439-3.438-15-3.438s-15,.75-15,3.438a14.6,14.6,0,0,0,8.5,13.126l-1,3.187a.893.893,0,0,0,.062.562.572.572,0,0,0,.5.251h13.876a.591.591,0,0,0,.624-.626.567.567,0,0,0-.062-.311l-1-3.063A14.53,14.53,0,0,0,1750.48,308.832Zm-28.751.062h0c.249-.75,5.125-2.25,13.75-2.25s13.563,1.438,13.75,2.188c-.187.75-5.125,2.188-13.75,2.188C1726.854,311.082,1721.978,309.646,1721.729,308.894Zm7.688,15.815.812-2.563h10.564l.812,2.563Zm11.876-3.813h-11.627a13.333,13.333,0,0,1-7.813-10.438c2.814,1.438,9.377,1.875,13.627,1.875s10.813-.437,13.625-1.875A13.334,13.334,0,0,1,1741.292,320.9Z" transform="translate(-1720.478 -295.956)" fill="#2695f9"/>
</svg>
