<svg id="Group_73" data-name="Group 73" xmlns="http://www.w3.org/2000/svg" width="29.044" height="28.682" viewBox="0 0 29.044 28.682">
  <path id="Path_44" data-name="Path 44" d="M1746.623,262.985h-22.751a3.125,3.125,0,0,0-3.146,3.146v22.389a3.125,3.125,0,0,0,3.146,3.146h22.751a3.125,3.125,0,0,0,3.146-3.146V266.131A3.125,3.125,0,0,0,1746.623,262.985Zm-4.356,5.506a7.356,7.356,0,0,1-6.6,7.323l.968-6.233a.582.582,0,0,0-1.15-.182l-1.028,6.474a7.484,7.484,0,0,1-6.837-7.383,6.964,6.964,0,0,1,1.391-4.234h11.92A7.337,7.337,0,0,1,1742.267,268.491Zm-18.395-4.3h3.691a8.5,8.5,0,0,0,7.381,12.769h0a8.5,8.5,0,0,0,7.382-12.769h4.3a1.912,1.912,0,0,1,1.937,1.937v17.185h-26.624V266.131A1.912,1.912,0,0,1,1723.872,264.195Zm22.751,26.263h-22.751a1.912,1.912,0,0,1-1.936-1.937v-3.995h26.624v3.995A1.912,1.912,0,0,1,1746.623,290.457Z" transform="translate(-1720.726 -262.985)" fill="#2695f9"/>
  <path id="Path_45" data-name="Path 45" d="M1727.041,266.064a.58.58,0,0,0,.787.3.556.556,0,0,0,.3-.787l-.363-.846a.6.6,0,0,0-1.09.483Z" transform="translate(-1715.243 -261.706)" fill="#2695f9"/>
  <path id="Path_46" data-name="Path 46" d="M1730.2,267.207a.555.555,0,0,0,.787.3l.846-.363a.6.6,0,1,0-.483-1.09l-.846.363A.6.6,0,0,0,1730.2,267.207Z" transform="translate(-1711.93 -260.188)" fill="#2695f9"/>
  <path id="Path_47" data-name="Path 47" d="M1725.007,266.407a.6.6,0,0,0,.3.787l.848.363a.6.6,0,0,0,.483-1.09l-.846-.423A.582.582,0,0,0,1725.007,266.407Z" transform="translate(-1716.777 -260.174)" fill="#2695f9"/>
  <path id="Path_48" data-name="Path 48" d="M1729.141,266.382a.6.6,0,0,0,.787-.3l.364-.908a.6.6,0,0,0-1.09-.485l-.363.848A.6.6,0,0,0,1729.141,266.382Z" transform="translate(-1713.228 -261.722)" fill="#2695f9"/>
</svg>
