<svg xmlns="http://www.w3.org/2000/svg" width="16.776" height="20.461" viewBox="0 0 16.776 20.461">
  <g id="Group_497" data-name="Group 497" transform="translate(0)">
    <path id="apple" d="M62.332,14.079a3.527,3.527,0,0,1-1.97-3.262A3.778,3.778,0,0,1,62.168,7.7l.013-.01a.6.6,0,0,0,.138-.811,5.154,5.154,0,0,0-4.3-2.168h0a4.7,4.7,0,0,0-.923.1q.162-.129.313-.276a5.27,5.27,0,0,0,1.52-3.95.6.6,0,0,0-.6-.582,4.563,4.563,0,0,0-3.236,1.7,4.43,4.43,0,0,0-1.169,3.474.594.594,0,0,0,.1.257c-.16-.054-.329-.116-.5-.177a6.193,6.193,0,0,0-2.027-.5,5.806,5.806,0,0,0-2.75.859c-1.2.743-2.622,2.291-2.622,5.442A14.044,14.044,0,0,0,47.761,16.9c.685,1.321,2.106,3.539,3.93,3.55h.02c1.331,0,2.433-.786,3.183-.786,1.281,0,1.736.795,3.121.795,1.242,0,2.445-.943,3.576-2.8a16.141,16.141,0,0,0,.936-1.805c.377-.851.377-.964.377-1.047C62.906,14.424,62.614,14.248,62.332,14.079ZM56,2.483A3.921,3.921,0,0,1,57.7,1.3a3.925,3.925,0,0,1-1.123,2.366,2.883,2.883,0,0,1-1.48.785A3.554,3.554,0,0,1,56,2.483ZM60.51,17.13c-.855,1.376-1.741,2.133-2.495,2.133-1.037,0-1.521-.795-3.121-.795-1.08,0-2.11.791-3.2.786-.847,0-1.948-1.117-2.873-2.9a12.772,12.772,0,0,1-1.5-5.295c0-2.069.68-3.55,2.021-4.4a4.651,4.651,0,0,1,2.157-.7c.936,0,2.234.83,3.181.83.852,0,1.993-.874,3.334-.874h.022a4.045,4.045,0,0,1,2.939,1.2,4.788,4.788,0,0,0,.6,7.914A14.854,14.854,0,0,1,60.51,17.13Z" transform="translate(-46.13)" fill="#2695f9"/>
    <path id="Path_228" data-name="Path 228" d="M293.925,585.707" transform="translate(-290.063 -572.461)" fill="none" stroke="#fff" stroke-linecap="round" stroke-width="0.4"/>
  </g>
</svg>
