<svg xmlns="http://www.w3.org/2000/svg" width="23.714" height="15.985" viewBox="0 0 23.714 15.985">
  <g id="Group_496" data-name="Group 496" transform="translate(0)">
    <g id="Group_418" data-name="Group 418" transform="translate(0 0)">
      <g id="Group_418-2" data-name="Group 418" transform="translate(0 0)">
        <path id="Path_229" data-name="Path 229" d="M579.543,477.128H557.484a.828.828,0,0,1-.827-.827V461.97a.828.828,0,0,1,.827-.827h22.059a.828.828,0,0,1,.827.827V476.3A.828.828,0,0,1,579.543,477.128Zm-21.709-1.178h21.358V462.321H557.835Z" transform="translate(-556.657 -461.143)" fill="#2695f9"/>
      </g>
      <g id="Group_419" data-name="Group 419" transform="translate(0.589 4.375)">
        <rect id="Rectangle_78" data-name="Rectangle 78" width="22.536" height="1.178" transform="translate(0 0)" fill="#2695f9"/>
      </g>
      <g id="Group_423" data-name="Group 423" transform="translate(15.864 8.099)">
        <path id="Path_230" data-name="Path 230" d="M747.475,561.924a2.258,2.258,0,1,1,2.258-2.258A2.26,2.26,0,0,1,747.475,561.924Zm0-3.338a1.08,1.08,0,1,0,1.08,1.08A1.081,1.081,0,0,0,747.475,558.586Z" transform="translate(-745.217 -557.408)" fill="#2695f9"/>
      </g>
    </g>
  </g>
</svg>
