<svg xmlns="http://www.w3.org/2000/svg" width="24.964" height="15.883" viewBox="0 0 24.964 15.883">
  <g id="Group_498" data-name="Group 498" transform="translate(0)">
    <g id="Group_416" data-name="Group 416" transform="translate(0 0)">
      <g id="Group_417" data-name="Group 417" transform="translate(0 0)">
        <g id="Group_416-2" data-name="Group 416" transform="translate(0 0)">
          <path id="Path_224" data-name="Path 224" d="M436.963,86.946h-.142a.55.55,0,0,1,.2.057A.4.4,0,0,0,436.963,86.946Z" transform="translate(-412.366 -86.946)" fill="#2695f9"/>
          <path id="Path_225" data-name="Path 225" d="M116.962,87.472a.559.559,0,0,0-.3-.453L116.65,87a.55.55,0,0,0-.2-.057H92.509a.55.55,0,0,0-.2.057.563.563,0,0,0-.312.468.359.359,0,0,0,0,.039v14.751a.567.567,0,0,0,.567.567H116.4a.567.567,0,0,0,.567-.567V87.511A.361.361,0,0,0,116.962,87.472Zm-1.133,14.223H93.135V88.078h22.694Z" transform="translate(-92 -86.946)" fill="#2695f9"/>
        </g>
      </g>
    </g>
    <path id="Path_260" data-name="Path 260" d="M1.979-3.475H-3.735v-.833h1.248A4.2,4.2,0,0,1-1.1-6.614a3.757,3.757,0,0,1,2.514-.9A4.162,4.162,0,0,1,4.474-6.167L3.7-5.4A3.225,3.225,0,0,0,1.416-6.424a2.661,2.661,0,0,0-1.725.593A3.045,3.045,0,0,0-1.324-4.308h3.3Zm-5.713.522H1.979V-2.2H-1.312A2.98,2.98,0,0,0-.3-.717a2.679,2.679,0,0,0,1.713.581,3.192,3.192,0,0,0,2.3-1.04l.771.783A4.175,4.175,0,0,1,1.416.953,3.764,3.764,0,0,1-1.08.072,4.186,4.186,0,0,1-2.474-2.2h-1.26Z" transform="translate(11.342 10.707)" fill="#2695f9"/>
  </g>
</svg>
