<svg xmlns="http://www.w3.org/2000/svg" width="22.276" height="19.03" viewBox="0 0 22.276 19.03">
  <path id="Path_87" data-name="Path 87" d="M2496.953,265.885h-1.177a1.272,1.272,0,0,0,.244-.794v-.173a1.362,1.362,0,0,0-.726-1.211,1.879,1.879,0,0,0,.726-1.486v-.9a1.937,1.937,0,0,0-.485-1.279h1.418a.325.325,0,0,0,.343-.346c0-4.457-6.77-8.052-11.159-8.052-4.251,0-10.817,3.456-10.817,8.052a.327.327,0,0,0,.346.346h1.417a1.892,1.892,0,0,0-.485,1.279v.723h0v.173a1.828,1.828,0,0,0,.727,1.486,1.443,1.443,0,0,0-.727,1.211v.173a1.644,1.644,0,0,0,.245.794h-1.177a.327.327,0,0,0-.346.346c0,2.28,2.456,4.148,5.461,4.148h11.056a6.291,6.291,0,0,0,3.8-1.177,3.748,3.748,0,0,0,1.625-2.971A.3.3,0,0,0,2496.953,265.885Zm-10.816-13.544c3.938,0,10.124,3.178,10.47,7.014h-20.595C2476.358,255.451,2482.266,252.341,2486.137,252.341Zm8.224,11.783a.875.875,0,0,1,.967.794v.173a.911.911,0,0,1-.794.794h-1.625v-1.761Zm-4.667,0h.932v2.937a.423.423,0,0,1-.448.343c-.24,0-.451-.17-.451-.343C2489.695,266.956,2489.695,264.087,2489.695,264.124Zm1.624,1.795v-1.795h.933v1.795c0,.139-.173.244-.312.244h-.274C2491.491,266.163,2491.319,266.058,2491.319,265.919Zm2.8-2.487H2478.5a1.2,1.2,0,0,1-1.211-1.174l1.764-.726a.814.814,0,0,1,.932.207c.966,1.381,2.626-.1,2.8-.139.692-.414,1.175.312,1.314.414a1.553,1.553,0,0,0,1.9.071l.553-.417a.835.835,0,0,1,.97,0l.723.553a1.592,1.592,0,0,0,1.658.1l1.385-.794a.856.856,0,0,1,.865.034l.828.587a1.558,1.558,0,0,0,1.831-.068l.586-.519v.655A1.335,1.335,0,0,1,2494.118,263.432ZM2477.29,261.5v-.207a1.239,1.239,0,0,1,1.245-1.242h15.582a1.229,1.229,0,0,1,1.106.689l-.9.76a.828.828,0,0,1-.968.037l-.828-.59a1.552,1.552,0,0,0-1.59-.068l-1.381.794a.921.921,0,0,1-.9-.034l-.726-.553a1.559,1.559,0,0,0-1.8,0l-.554.414a.823.823,0,0,1-1-.034,1.738,1.738,0,0,0-2.142-.482c-.277.1-1.314,1.106-1.866.346a1.487,1.487,0,0,0-1.763-.451Zm0,3.629v-.173a.9.9,0,0,1,.967-.828h10.75v1.761h-10.923A.85.85,0,0,1,2477.29,265.125Zm17.968,3.524a5.577,5.577,0,0,1-3.42,1.038h-11.056c-2.453,0-4.492-1.384-4.736-3.11,17.8.034,11.645,0,12.994.034v.451a1.087,1.087,0,0,0,1.14,1.035,1.109,1.109,0,0,0,1.139-1.035v-.244a1.041,1.041,0,0,0,.312.071h.275a1.278,1.278,0,0,0,.692-.244c.105,0-.621,0,4.009-.034A3.249,3.249,0,0,1,2495.258,268.649Z" transform="translate(-2475.17 -251.499)" fill="#fff" stroke="#fff" stroke-width="0.3"/>
</svg>
