<svg xmlns="http://www.w3.org/2000/svg" width="19.049" height="20.296" viewBox="0 0 19.049 20.296">
  <g id="Group_146" data-name="Group 146" transform="translate(0 0)">
    <path id="Path_117" data-name="Path 117" d="M2427.822,250.505c-1.937,0-3.3,3.378-3.3,5.206a3.579,3.579,0,0,0,2.358,3.442l-.363,9.8a2.131,2.131,0,0,0,.491,1.54.939.939,0,0,0,.678.308h.264a.945.945,0,0,0,.68-.308,2.141,2.141,0,0,0,.489-1.54l-.366-9.8a3.571,3.571,0,0,0,2.36-3.439C2431.117,253.883,2429.757,250.505,2427.822,250.505Zm.509,8.068a.191.191,0,0,0-.032.016.336.336,0,0,0-.067.027.449.449,0,0,0-.05.037.284.284,0,0,0-.077.1.309.309,0,0,0-.025.064.333.333,0,0,0-.012.064l-.007.039.374,10.058a1.5,1.5,0,0,1-.3,1.038.264.264,0,0,1-.185.1h-.264a.258.258,0,0,1-.183-.1,1.49,1.49,0,0,1-.3-1.038l.375-10.058a.4.4,0,0,0-.009-.05l-.008-.043a.357.357,0,0,0-.032-.08l-.025-.039a.3.3,0,0,0-.054-.059l-.043-.032a.476.476,0,0,0-.068-.03l-.032-.014a2.861,2.861,0,0,1-2.1-2.86c0-1.7,1.263-4.521,2.61-4.521s2.609,2.821,2.609,4.521A2.859,2.859,0,0,1,2428.331,258.573Z" transform="translate(-2424.526 -250.505)" fill="#2695f9"/>
    <path id="Path_118" data-name="Path 118" d="M2438.321,251.211h-9.435a1.2,1.2,0,0,0-1.2,1.2v15a1.2,1.2,0,0,0,1.2,1.2h9.435a1.2,1.2,0,0,0,1.2-1.2v-15A1.2,1.2,0,0,0,2438.321,251.211Zm.514,16.2a.517.517,0,0,1-.514.516h-9.435a.518.518,0,0,1-.515-.516v-15a.516.516,0,0,1,.515-.516h9.435a.515.515,0,0,1,.514.516Z" transform="translate(-2420.473 -249.6)" fill="#2695f9"/>
    <ellipse id="Ellipse_28" data-name="Ellipse 28" cx="0.555" cy="0.555" rx="0.555" ry="0.555" transform="translate(9.064 4.608)" fill="#2695f9"/>
    <path id="Path_119" data-name="Path 119" d="M2435.706,252.617h-6.146a.343.343,0,0,0,0,.687h6.146a.343.343,0,0,0,0-.687Z" transform="translate(-2418.51 -247.797)" fill="#2695f9"/>
    <circle id="Ellipse_29" data-name="Ellipse 29" cx="0.555" cy="0.555" r="0.555" transform="translate(9.064 8.039)" fill="#2695f9"/>
    <path id="Path_120" data-name="Path 120" d="M2435.706,254.121h-6.146a.342.342,0,1,0,0,.685h6.146a.342.342,0,1,0,0-.685Z" transform="translate(-2418.51 -245.868)" fill="#2695f9"/>
    <circle id="Ellipse_30" data-name="Ellipse 30" cx="0.555" cy="0.555" r="0.555" transform="translate(9.064 11.47)" fill="#2695f9"/>
    <path id="Path_121" data-name="Path 121" d="M2435.706,255.623h-6.146a.343.343,0,0,0,0,.687h6.146a.343.343,0,0,0,0-.687Z" transform="translate(-2418.51 -243.942)" fill="#2695f9"/>
    <circle id="Ellipse_31" data-name="Ellipse 31" cx="0.555" cy="0.555" r="0.555" transform="translate(9.064 14.9)" fill="#2695f9"/>
    <path id="Path_122" data-name="Path 122" d="M2435.706,257.127h-6.146a.342.342,0,1,0,0,.685h6.146a.342.342,0,1,0,0-.685Z" transform="translate(-2418.51 -242.014)" fill="#2695f9"/>
  </g>
</svg>
