<svg id="Group_325" data-name="Group 325" xmlns="http://www.w3.org/2000/svg" width="33.05" height="33.05" viewBox="0 0 33.05 33.05">
  <g id="Group_325-2" data-name="Group 325">
    <path id="Path_208" data-name="Path 208" d="M6.2,33.05A.7.7,0,0,1,5.934,33a.688.688,0,0,1-.426-.636v-6.2H3.443A3.447,3.447,0,0,1,0,22.722V3.443A3.447,3.447,0,0,1,3.443,0H29.607A3.447,3.447,0,0,1,33.05,3.443V22.722a3.447,3.447,0,0,1-3.443,3.443H13.367L6.683,32.849a.688.688,0,0,1-.486.2ZM3.443,1.377A2.068,2.068,0,0,0,1.377,3.443V22.722a2.068,2.068,0,0,0,2.066,2.066H6.2a.689.689,0,0,1,.689.689V30.7l5.709-5.709a.689.689,0,0,1,.487-.2H29.607a2.068,2.068,0,0,0,2.066-2.066V3.443a2.068,2.068,0,0,0-2.066-2.066Z" fill="#2695f9"/>
  </g>
  <g id="Group_328" data-name="Group 328" transform="translate(10.7 4.389)">
    <g id="Group_326" data-name="Group 326">
      <path id="Path_209" data-name="Path 209" d="M177.335,88.522h-4.712a1.007,1.007,0,0,1-1.006-1.006V84.458a4.054,4.054,0,0,0-1.026-2.657,5.825,5.825,0,1,1,8.768.01A4.085,4.085,0,0,0,178.34,84.5v3.012A1.007,1.007,0,0,1,177.335,88.522Zm-4.242-1.476h3.772V84.5a5.56,5.56,0,0,1,1.385-3.667,4.35,4.35,0,1,0-6.548-.008,5.528,5.528,0,0,1,1.391,3.628Z" transform="translate(-169.153 -72.144)" fill="#2695f9"/>
    </g>
    <g id="Group_327" data-name="Group 327" transform="translate(3.201 11.511)">
      <rect id="Rectangle_58" data-name="Rectangle 58" width="5.248" height="1.476" fill="#2695f9"/>
    </g>
  </g>
</svg>
