<svg xmlns="http://www.w3.org/2000/svg" width="18.511" height="16.608" viewBox="0 0 18.511 16.608">
  <g id="Group_544" data-name="Group 544" transform="translate(-47 -565.433)">
    <g id="Group_487" data-name="Group 487" transform="translate(47 565.433)">
      <g id="Group_488" data-name="Group 488" transform="translate(0 0)">
        <path id="Path_270" data-name="Path 270" d="M18.215,39.658,11.14,27.4a2.177,2.177,0,0,0-3.77,0L.295,39.658A2.177,2.177,0,0,0,2.18,42.923H16.33a2.177,2.177,0,0,0,1.885-3.265Zm-.939,1.634a1.081,1.081,0,0,1-.946.546H2.18A1.092,1.092,0,0,1,1.234,40.2L8.309,27.946a1.092,1.092,0,0,1,1.892,0L17.276,40.2A1.081,1.081,0,0,1,17.276,41.292Z" transform="translate(0 -26.315)" fill="#2695f9"/>
      </g>
    </g>
    <g id="Group_488-2" data-name="Group 488" transform="translate(55.713 570.845)">
      <g id="Group_490" data-name="Group 490">
        <rect id="Rectangle_79" data-name="Rectangle 79" width="1.084" height="5.422" fill="#2695f9"/>
      </g>
    </g>
    <g id="Group_489" data-name="Group 489" transform="translate(55.532 577.352)">
      <g id="Group_492" data-name="Group 492">
        <path id="Path_271" data-name="Path 271" d="M236.725,355.99a.723.723,0,1,0,.723.723A.724.724,0,0,0,236.725,355.99Z" transform="translate(-236.002 -355.99)" fill="#2695f9"/>
      </g>
    </g>
  </g>
</svg>
